<?xml version="1.0" encoding="utf-8"?>
<!-- Generator: Adobe Illustrator 24.3.0, SVG Export Plug-In . SVG Version: 6.00 Build 0)  -->
<svg version="1.1" id="Layer_1" xmlns="http://www.w3.org/2000/svg" xmlns:xlink="http://www.w3.org/1999/xlink" x="0px" y="0px"
	 viewBox="0 0 46.8 21.7" style="enable-background:new 0 0 46.8 21.7;" xml:space="preserve">
<style type="text/css">
	.st0{fill-rule:evenodd;clip-rule:evenodd;fill:#5698B8;}
	.st1{fill:#5698B8;}
</style>
<g>
	<path class="st0" d="M31.8,6.2c-0.2,0-0.4,0.1-0.6,0.3l0,0C31.1,6.7,31,6.9,31,7.2v8.5c0,0.3,0.1,0.5,0.2,0.7l0,0
		c0.2,0.2,0.4,0.3,0.6,0.3c0.2,0,0.4-0.1,0.6-0.3l0,0c0.2-0.2,0.2-0.4,0.2-0.7V7.2c0-0.3-0.1-0.5-0.2-0.7l0,0
		C32.2,6.3,32,6.2,31.8,6.2"/>
	<path class="st0" d="M36.2,8.7c-0.2,0-0.4,0.1-0.6,0.2l0,0c-0.2,0.2-0.2,0.4-0.2,0.6v3.8c0,0.2,0.1,0.4,0.2,0.6l0,0
		c0.2,0.2,0.4,0.2,0.6,0.2c0.2,0,0.4-0.1,0.6-0.2l0,0c0.2-0.2,0.2-0.4,0.2-0.6V9.5c0-0.2-0.1-0.4-0.2-0.6l0,0
		C36.6,8.8,36.4,8.7,36.2,8.7"/>
	<path class="st0" d="M12.9,16.6c0.2,0,0.4-0.1,0.6-0.3l0,0c0.2-0.2,0.2-0.4,0.2-0.7V7.2c0-0.3-0.1-0.5-0.2-0.7l0,0
		c-0.2-0.2-0.4-0.3-0.6-0.3s-0.4,0.1-0.6,0.3l0,0c-0.2,0.2-0.2,0.4-0.2,0.7v8.5c0,0.3,0.1,0.5,0.2,0.7l0,0
		C12.5,16.5,12.7,16.6,12.9,16.6"/>
	<path class="st0" d="M17.3,14.1c0.2,0,0.4-0.1,0.6-0.2l0,0c0.2-0.2,0.2-0.4,0.2-0.6V9.5c0-0.2-0.1-0.4-0.2-0.6l0,0
		c-0.2-0.2-0.4-0.2-0.6-0.2c-0.2,0-0.4,0.1-0.6,0.2l0,0c-0.2,0.2-0.2,0.4-0.2,0.6v3.8c0,0.2,0.1,0.4,0.2,0.6l0,0
		C16.9,14.1,17.1,14.1,17.3,14.1"/>
	<path class="st0" d="M8.7,14.1c0.2,0,0.4-0.1,0.6-0.2l0,0c0.2-0.2,0.2-0.4,0.2-0.6V9.5c0-0.2-0.1-0.4-0.2-0.6l0,0
		C9.1,8.8,8.9,8.7,8.7,8.7S8.3,8.8,8.1,9l0,0C8,9.1,7.9,9.3,7.9,9.5v3.8c0,0.2,0.1,0.4,0.2,0.6l0,0C8.3,14.1,8.5,14.1,8.7,14.1"/>
	<path class="st0" d="M27.5,14.1c0.2,0,0.4-0.1,0.6-0.2l0,0c0.2-0.2,0.2-0.4,0.2-0.6V9.5c0-0.2-0.1-0.4-0.2-0.6l0,0
		c-0.2-0.2-0.4-0.2-0.6-0.2c-0.2,0-0.4,0.1-0.6,0.2l0,0c-0.2,0.2-0.2,0.4-0.2,0.6v3.8c0,0.2,0.1,0.4,0.2,0.6l0,0
		C27,14.1,27.2,14.1,27.5,14.1"/>
	<path class="st0" d="M7.7,4.4c2-1.6,4.2-2.5,6.3-2.4c1.9,0.1,3.7,0.9,5.3,2.5s2.9,3.8,3.9,6.7c0.9,2.6,2.1,4.6,3.4,6
		c1.3,1.4,2.8,2.1,4.4,2.2c1.8,0.1,3.6-0.7,5.4-2.2s3.6-3.8,5.2-6.7c0.1-0.1,0.2-0.2,0.3-0.3C42,10,42.2,10,42.3,10
		c0.1,0,0.3,0,0.4,0.1c0.1,0.1,0.2,0.2,0.3,0.3s0.1,0.2,0.1,0.4c0,0.1,0,0.3-0.1,0.4c-1.8,3.2-3.7,5.7-5.8,7.3
		c-2,1.6-4.2,2.5-6.2,2.4c-1.9-0.1-3.7-0.9-5.2-2.5c-1.5-1.5-2.8-3.8-3.9-6.6c-0.9-2.6-2.1-4.6-3.5-6c-1.4-1.4-2.8-2.1-4.5-2.2
		c-1.8-0.1-3.6,0.7-5.4,2.2c-1.8,1.5-3.6,3.7-5.2,6.6c-0.1,0.2-0.3,0.3-0.4,0.4c-0.2,0.1-0.4,0-0.6,0l0,0c0,0-0.1,0-0.1-0.1l0,0
		c0,0-0.1,0-0.1-0.1l0,0C2,12.2,2,12.1,1.9,11.9c0-0.2,0-0.3,0.1-0.4C3.7,8.5,5.6,6,7.7,4.4"/>
	<path class="st1" d="M2.3,12.3"/>
</g>
</svg>
