<?xml version="1.0" encoding="utf-8"?>
<!-- Generator: Adobe Illustrator 24.3.0, SVG Export Plug-In . SVG Version: 6.00 Build 0)  -->
<svg version="1.1" id="Layer_1" xmlns="http://www.w3.org/2000/svg" xmlns:xlink="http://www.w3.org/1999/xlink" x="0px" y="0px"
	 viewBox="0 0 96 21" style="enable-background:new 0 0 96 21;" xml:space="preserve">
<style type="text/css">
	.st0{fill:#B76B77;}
</style>
<g>
	<g>
		<path d="M21.8,4.4c-0.3-0.5-0.8-0.7-1.4-0.7c-0.2,0-0.4,0-0.6,0.1c-0.2,0.1-0.4,0.1-0.5,0.2c-0.1,0.1-0.3,0.2-0.4,0.4
			c-0.1,0.2-0.1,0.4-0.1,0.6c0,0.3,0.1,0.6,0.3,0.8s0.4,0.3,0.7,0.4c0.3,0.1,0.6,0.2,0.9,0.3c0.3,0.1,0.6,0.2,0.9,0.4
			s0.5,0.4,0.7,0.6c0.2,0.3,0.3,0.6,0.3,1c0,0.3-0.1,0.6-0.2,0.9c-0.1,0.3-0.3,0.5-0.6,0.7c-0.2,0.2-0.5,0.3-0.8,0.4
			c-0.3,0.1-0.6,0.1-0.9,0.1c-0.4,0-0.9-0.1-1.3-0.3s-0.7-0.4-1-0.8l0.7-0.5c0.2,0.3,0.4,0.5,0.7,0.6c0.3,0.2,0.6,0.2,1,0.2
			c0.2,0,0.4,0,0.6-0.1s0.4-0.1,0.5-0.3s0.3-0.3,0.4-0.4s0.1-0.4,0.1-0.6c0-0.3-0.1-0.5-0.2-0.6s-0.2-0.3-0.4-0.4
			c-0.2-0.1-0.4-0.2-0.6-0.3s-0.5-0.2-0.7-0.2s-0.5-0.2-0.7-0.3s-0.4-0.2-0.6-0.4c-0.2-0.1-0.3-0.3-0.4-0.6s-0.2-0.5-0.2-0.8
			c0-0.4,0.1-0.7,0.2-0.9c0.1-0.3,0.3-0.5,0.5-0.6c0.2-0.2,0.5-0.3,0.8-0.4S20.1,3,20.4,3c0.4,0,0.8,0.1,1.1,0.2s0.6,0.4,0.9,0.7
			L21.8,4.4z"/>
		<path d="M26.3,6.3h-1.4v2.8c0,0.2,0,0.3,0.1,0.4s0.1,0.2,0.1,0.3c0.1,0.1,0.1,0.1,0.2,0.1c0.1,0,0.2,0,0.3,0c0.1,0,0.2,0,0.4-0.1
			c0.1,0,0.2-0.1,0.3-0.1l0,0.6c-0.3,0.1-0.6,0.2-0.9,0.2c-0.1,0-0.3,0-0.4-0.1c-0.1,0-0.3-0.1-0.4-0.2c-0.1-0.1-0.2-0.2-0.3-0.4
			s-0.1-0.4-0.1-0.6v-3h-1V5.7h1V4.3h0.7v1.4h1.4V6.3z"/>
		<path d="M30.7,10.5c0-0.1,0-0.3,0-0.4c0-0.1,0-0.3,0-0.4h0c-0.1,0.1-0.2,0.3-0.3,0.4s-0.2,0.2-0.4,0.3c-0.1,0.1-0.3,0.1-0.5,0.2
			c-0.2,0-0.3,0.1-0.5,0.1c-0.6,0-1.1-0.2-1.4-0.5c-0.3-0.3-0.4-0.8-0.4-1.4V5.7h0.7v2.7c0,0.3,0,0.5,0.1,0.7c0,0.2,0.1,0.4,0.2,0.5
			s0.2,0.2,0.4,0.3C28.8,10,29,10,29.3,10c0,0,0.1,0,0.3,0s0.3-0.1,0.5-0.2c0.2-0.1,0.3-0.3,0.5-0.6s0.2-0.6,0.2-1V5.7h0.7v3.8
			c0,0.1,0,0.3,0,0.5c0,0.2,0,0.4,0,0.6H30.7z"/>
		<path d="M37.8,10.5h-0.7V9.7h0c-0.1,0.2-0.2,0.3-0.4,0.4c-0.2,0.1-0.3,0.2-0.5,0.3c-0.2,0.1-0.3,0.1-0.5,0.2
			c-0.2,0-0.3,0.1-0.5,0.1c-0.4,0-0.7-0.1-1-0.2c-0.3-0.1-0.6-0.3-0.8-0.5S33,9.4,32.8,9.1c-0.1-0.3-0.2-0.6-0.2-1s0.1-0.7,0.2-1
			c0.1-0.3,0.3-0.6,0.5-0.8s0.5-0.4,0.8-0.5c0.3-0.1,0.7-0.2,1-0.2c0.2,0,0.3,0,0.5,0.1c0.2,0,0.3,0.1,0.5,0.2
			c0.2,0.1,0.3,0.2,0.5,0.3c0.2,0.1,0.3,0.3,0.4,0.4h0V2.7h0.7V10.5z M33.4,8.1c0,0.3,0,0.5,0.1,0.8c0.1,0.2,0.2,0.4,0.4,0.6
			c0.2,0.2,0.3,0.3,0.6,0.4c0.2,0.1,0.5,0.1,0.8,0.1c0.3,0,0.5,0,0.8-0.1c0.2-0.1,0.4-0.2,0.6-0.4c0.2-0.2,0.3-0.4,0.4-0.6
			s0.1-0.5,0.1-0.8s0-0.5-0.1-0.8s-0.2-0.4-0.4-0.6c-0.2-0.2-0.4-0.3-0.6-0.4c-0.2-0.1-0.5-0.1-0.8-0.1c-0.3,0-0.5,0.1-0.8,0.1
			c-0.2,0.1-0.4,0.2-0.6,0.4s-0.3,0.4-0.4,0.6C33.4,7.6,33.4,7.8,33.4,8.1z"/>
		<path d="M40.3,3.8c0,0.1-0.1,0.3-0.2,0.4c-0.1,0.1-0.2,0.1-0.3,0.1s-0.2,0-0.3-0.1S39.3,4,39.3,3.8c0-0.1,0.1-0.3,0.2-0.4
			c0.1-0.1,0.2-0.1,0.3-0.1s0.2,0,0.3,0.1C40.2,3.6,40.3,3.7,40.3,3.8z M40.1,10.5h-0.7V5.7h0.7V10.5z"/>
		<path d="M46.6,8.1c0,0.4-0.1,0.7-0.2,1c-0.1,0.3-0.3,0.6-0.5,0.8s-0.5,0.4-0.8,0.5s-0.7,0.2-1,0.2c-0.4,0-0.7-0.1-1-0.2
			c-0.3-0.1-0.6-0.3-0.8-0.5s-0.4-0.5-0.5-0.8c-0.1-0.3-0.2-0.6-0.2-1s0.1-0.7,0.2-1c0.1-0.3,0.3-0.6,0.5-0.8s0.5-0.4,0.8-0.5
			c0.3-0.1,0.7-0.2,1-0.2c0.4,0,0.7,0.1,1,0.2c0.3,0.1,0.6,0.3,0.8,0.5s0.4,0.5,0.5,0.8C46.6,7.4,46.6,7.7,46.6,8.1z M45.9,8.1
			c0-0.3,0-0.5-0.1-0.8c-0.1-0.2-0.2-0.4-0.4-0.6S45,6.4,44.8,6.3c-0.2-0.1-0.5-0.1-0.8-0.1c-0.3,0-0.5,0.1-0.8,0.1
			c-0.2,0.1-0.4,0.2-0.6,0.4c-0.2,0.2-0.3,0.4-0.4,0.6c-0.1,0.2-0.1,0.5-0.1,0.8s0,0.5,0.1,0.8c0.1,0.2,0.2,0.4,0.4,0.6
			c0.2,0.2,0.3,0.3,0.6,0.4c0.2,0.1,0.5,0.1,0.8,0.1c0.3,0,0.5,0,0.8-0.1c0.2-0.1,0.4-0.2,0.6-0.4c0.2-0.2,0.3-0.4,0.4-0.6
			C45.8,8.6,45.9,8.3,45.9,8.1z"/>
		<path d="M48,3.2h2.4c0.5,0,0.9,0.1,1.4,0.2c0.5,0.2,0.9,0.4,1.2,0.7c0.4,0.3,0.7,0.7,0.9,1.1c0.2,0.5,0.3,1,0.3,1.6
			c0,0.6-0.1,1.1-0.3,1.6c-0.2,0.5-0.5,0.8-0.9,1.1c-0.4,0.3-0.8,0.5-1.2,0.7c-0.5,0.2-0.9,0.2-1.4,0.2H48V3.2z M48.7,9.8h1.4
			c0.6,0,1-0.1,1.4-0.3c0.4-0.2,0.7-0.4,1-0.7c0.3-0.3,0.5-0.6,0.6-0.9c0.1-0.4,0.2-0.7,0.2-1.1s-0.1-0.7-0.2-1.1
			c-0.1-0.4-0.3-0.7-0.6-0.9c-0.3-0.3-0.6-0.5-1-0.7c-0.4-0.2-0.9-0.3-1.4-0.3h-1.4V9.8z"/>
		<path d="M56,8.3c0,0.2,0.1,0.5,0.2,0.7c0.1,0.2,0.2,0.4,0.4,0.6c0.2,0.2,0.3,0.3,0.5,0.4s0.4,0.1,0.7,0.1c0.4,0,0.7-0.1,0.9-0.3
			c0.3-0.2,0.5-0.4,0.6-0.6l0.5,0.4c-0.3,0.4-0.6,0.6-1,0.8c-0.3,0.2-0.7,0.2-1.1,0.2c-0.4,0-0.7-0.1-1-0.2
			c-0.3-0.1-0.6-0.3-0.8-0.5s-0.4-0.5-0.5-0.8c-0.1-0.3-0.2-0.6-0.2-1s0.1-0.7,0.2-1c0.1-0.3,0.3-0.6,0.5-0.8s0.5-0.4,0.8-0.5
			c0.3-0.1,0.6-0.2,1-0.2c0.4,0,0.7,0.1,1,0.2s0.5,0.3,0.7,0.5c0.2,0.2,0.3,0.5,0.4,0.8C59.9,7.3,60,7.6,60,8v0.3H56z M59.2,7.7
			c0-0.5-0.1-0.8-0.4-1.1c-0.3-0.3-0.7-0.4-1.2-0.4c-0.2,0-0.4,0-0.6,0.1s-0.4,0.2-0.5,0.3s-0.3,0.3-0.4,0.5C56,7.3,56,7.5,56,7.7
			H59.2z"/>
		<path class="st0" d="M61.5,3.2h2.2c0.3,0,0.6,0,0.9,0.1c0.3,0.1,0.5,0.2,0.8,0.3c0.2,0.1,0.4,0.3,0.5,0.6C65.9,4.4,66,4.7,66,5
			c0,0.4-0.1,0.7-0.3,1s-0.5,0.5-1,0.6v0c0.5,0,0.9,0.2,1.2,0.5c0.3,0.3,0.4,0.7,0.4,1.3c0,0.1,0,0.3-0.1,0.5s-0.2,0.5-0.4,0.7
			c-0.2,0.2-0.5,0.4-0.8,0.6c-0.3,0.2-0.8,0.2-1.4,0.2h-2.2V3.2z M62.2,6.4h1.5c0.2,0,0.4,0,0.5-0.1c0.2,0,0.3-0.1,0.5-0.2
			s0.3-0.2,0.3-0.4c0.1-0.2,0.1-0.4,0.1-0.6c0-0.1,0-0.2,0-0.3c0-0.1-0.1-0.3-0.2-0.4S64.7,4.1,64.4,4c-0.2-0.1-0.5-0.1-0.8-0.1
			h-1.4V6.4z M62.2,9.8h1.4c0.3,0,0.5,0,0.8-0.1c0.2-0.1,0.4-0.1,0.6-0.3s0.3-0.3,0.4-0.4c0.1-0.2,0.1-0.4,0.1-0.6
			c0-0.5-0.2-0.8-0.5-1.1S64.3,7,63.7,7h-1.5V9.8z"/>
		<path class="st0" d="M67.8,7.2c0-0.2,0-0.4,0-0.6c0-0.2,0-0.5,0-0.9h0.7v0.9h0c0-0.1,0.1-0.3,0.2-0.4c0.1-0.1,0.2-0.2,0.3-0.3
			s0.3-0.2,0.4-0.2c0.2-0.1,0.4-0.1,0.6-0.1c0.2,0,0.4,0,0.5,0.1l-0.1,0.7c-0.1,0-0.2-0.1-0.4-0.1c-0.3,0-0.5,0-0.7,0.1
			c-0.2,0.1-0.3,0.2-0.5,0.4c-0.1,0.2-0.2,0.3-0.3,0.5c-0.1,0.2-0.1,0.4-0.1,0.5v2.7h-0.7V7.2z"/>
		<path class="st0" d="M75.8,8.1c0,0.4-0.1,0.7-0.2,1c-0.1,0.3-0.3,0.6-0.5,0.8s-0.5,0.4-0.8,0.5c-0.3,0.1-0.7,0.2-1,0.2
			c-0.4,0-0.7-0.1-1-0.2s-0.6-0.3-0.8-0.5S71,9.4,70.9,9.1c-0.1-0.3-0.2-0.6-0.2-1s0.1-0.7,0.2-1c0.1-0.3,0.3-0.6,0.5-0.8
			s0.5-0.4,0.8-0.5c0.3-0.1,0.7-0.2,1-0.2c0.4,0,0.7,0.1,1,0.2c0.3,0.1,0.6,0.3,0.8,0.5s0.4,0.5,0.5,0.8C75.7,7.4,75.8,7.7,75.8,8.1
			z M75,8.1c0-0.3,0-0.5-0.1-0.8s-0.2-0.4-0.4-0.6S74.2,6.4,74,6.3c-0.2-0.1-0.5-0.1-0.8-0.1s-0.5,0.1-0.8,0.1
			c-0.2,0.1-0.4,0.2-0.6,0.4s-0.3,0.4-0.4,0.6c-0.1,0.2-0.1,0.5-0.1,0.8s0,0.5,0.1,0.8c0.1,0.2,0.2,0.4,0.4,0.6
			c0.2,0.2,0.3,0.3,0.6,0.4c0.2,0.1,0.5,0.1,0.8,0.1s0.5,0,0.8-0.1c0.2-0.1,0.4-0.2,0.6-0.4c0.2-0.2,0.3-0.4,0.4-0.6S75,8.3,75,8.1z
			"/>
		<path class="st0" d="M77.7,5.7c0,0.1,0,0.3,0,0.4c0,0.1,0,0.3,0,0.4h0c0.1-0.1,0.2-0.3,0.3-0.4c0.1-0.1,0.2-0.2,0.4-0.3
			c0.1-0.1,0.3-0.1,0.5-0.2c0.2,0,0.3-0.1,0.5-0.1c0.6,0,1.1,0.2,1.4,0.5c0.3,0.3,0.4,0.8,0.4,1.4v3.1h-0.7V7.8
			c0-0.5-0.1-0.9-0.3-1.2c-0.2-0.3-0.5-0.4-1-0.4c0,0-0.1,0-0.3,0c-0.2,0-0.3,0.1-0.5,0.2S78,6.7,77.9,7c-0.1,0.2-0.2,0.6-0.2,1v2.5
			H77V6.7c0-0.1,0-0.3,0-0.5c0-0.2,0-0.4,0-0.6H77.7z"/>
		<path class="st0" d="M86.1,6.2l-2.8,3.7h2.9v0.6h-3.9V10l2.8-3.7h-2.7V5.7h3.7V6.2z"/>
		<path class="st0" d="M87.6,8.3c0,0.2,0.1,0.5,0.2,0.7c0.1,0.2,0.2,0.4,0.4,0.6c0.2,0.2,0.3,0.3,0.5,0.4s0.4,0.1,0.7,0.1
			c0.4,0,0.7-0.1,0.9-0.3c0.3-0.2,0.5-0.4,0.6-0.6l0.5,0.4c-0.3,0.4-0.6,0.6-1,0.8c-0.3,0.2-0.7,0.2-1.1,0.2c-0.4,0-0.7-0.1-1-0.2
			c-0.3-0.1-0.6-0.3-0.8-0.5s-0.4-0.5-0.5-0.8c-0.1-0.3-0.2-0.6-0.2-1s0.1-0.7,0.2-1c0.1-0.3,0.3-0.6,0.5-0.8s0.5-0.4,0.8-0.5
			c0.3-0.1,0.6-0.2,1-0.2c0.4,0,0.7,0.1,1,0.2S90.8,6,91,6.3c0.2,0.2,0.3,0.5,0.4,0.8c0.1,0.3,0.2,0.6,0.2,0.9v0.3H87.6z M90.9,7.7
			c0-0.5-0.1-0.8-0.4-1.1c-0.3-0.3-0.7-0.4-1.2-0.4c-0.2,0-0.4,0-0.6,0.1s-0.4,0.2-0.5,0.3s-0.3,0.3-0.4,0.5
			c-0.1,0.2-0.1,0.4-0.1,0.6H90.9z"/>
	</g>
	<g>
		<path d="M25.4,13.4h0.3v1.9h0c0.1-0.1,0.1-0.2,0.2-0.2c0.1-0.1,0.2-0.1,0.2-0.1c0.1,0,0.2-0.1,0.3-0.1c0.1,0,0.2,0,0.2,0
			c0.2,0,0.4,0,0.5,0.1c0.2,0.1,0.3,0.2,0.4,0.3c0.1,0.1,0.2,0.2,0.3,0.4c0.1,0.2,0.1,0.3,0.1,0.5c0,0.2,0,0.4-0.1,0.5
			c-0.1,0.2-0.2,0.3-0.3,0.4c-0.1,0.1-0.2,0.2-0.4,0.3c-0.2,0.1-0.3,0.1-0.5,0.1c-0.1,0-0.2,0-0.2,0c-0.1,0-0.2,0-0.3-0.1
			c-0.1,0-0.2-0.1-0.2-0.1c-0.1-0.1-0.1-0.1-0.2-0.2h0v0.4h-0.3V13.4z M27.6,16.1c0-0.1,0-0.3-0.1-0.4c0-0.1-0.1-0.2-0.2-0.3
			s-0.2-0.2-0.3-0.2s-0.2-0.1-0.4-0.1c-0.1,0-0.3,0-0.4,0.1c-0.1,0-0.2,0.1-0.3,0.2s-0.2,0.2-0.2,0.3c0,0.1-0.1,0.2-0.1,0.4
			c0,0.1,0,0.3,0.1,0.4c0,0.1,0.1,0.2,0.2,0.3s0.2,0.2,0.3,0.2c0.1,0,0.2,0.1,0.4,0.1c0.1,0,0.3,0,0.4-0.1s0.2-0.1,0.3-0.2
			s0.1-0.2,0.2-0.3C27.6,16.4,27.6,16.2,27.6,16.1z"/>
		<path d="M28.6,15.6c0-0.1,0-0.2,0-0.3c0-0.1,0-0.3,0-0.4h0.3v0.4h0c0-0.1,0.1-0.1,0.1-0.2c0-0.1,0.1-0.1,0.2-0.2
			c0.1,0,0.1-0.1,0.2-0.1c0.1,0,0.2,0,0.3,0c0.1,0,0.2,0,0.3,0l-0.1,0.3c0,0-0.1,0-0.2,0c-0.1,0-0.2,0-0.3,0.1s-0.2,0.1-0.2,0.2
			c-0.1,0.1-0.1,0.2-0.1,0.3c0,0.1,0,0.2,0,0.3v1.4h-0.3V15.6z"/>
		<path d="M32.6,16.1c0,0.2,0,0.4-0.1,0.5c-0.1,0.2-0.2,0.3-0.3,0.4c-0.1,0.1-0.2,0.2-0.4,0.3c-0.2,0.1-0.3,0.1-0.5,0.1
			c-0.2,0-0.4,0-0.5-0.1c-0.2-0.1-0.3-0.2-0.4-0.3c-0.1-0.1-0.2-0.2-0.3-0.4c-0.1-0.2-0.1-0.3-0.1-0.5c0-0.2,0-0.4,0.1-0.5
			c0.1-0.2,0.2-0.3,0.3-0.4c0.1-0.1,0.2-0.2,0.4-0.3c0.2-0.1,0.3-0.1,0.5-0.1c0.2,0,0.4,0,0.5,0.1c0.2,0.1,0.3,0.2,0.4,0.3
			c0.1,0.1,0.2,0.2,0.3,0.4C32.6,15.7,32.6,15.9,32.6,16.1z M32.3,16.1c0-0.1,0-0.3-0.1-0.4c0-0.1-0.1-0.2-0.2-0.3
			c-0.1-0.1-0.2-0.2-0.3-0.2s-0.2-0.1-0.4-0.1s-0.3,0-0.4,0.1s-0.2,0.1-0.3,0.2c-0.1,0.1-0.1,0.2-0.2,0.3c0,0.1-0.1,0.2-0.1,0.4
			c0,0.1,0,0.3,0.1,0.4c0,0.1,0.1,0.2,0.2,0.3c0.1,0.1,0.2,0.2,0.3,0.2s0.2,0.1,0.4,0.1s0.3,0,0.4-0.1s0.2-0.1,0.3-0.2
			c0.1-0.1,0.1-0.2,0.2-0.3C32.2,16.4,32.3,16.2,32.3,16.1z"/>
		<path d="M33.6,14.9c0,0.1,0,0.1,0,0.2c0,0.1,0,0.1,0,0.2h0c0-0.1,0.1-0.1,0.1-0.2c0.1-0.1,0.1-0.1,0.2-0.1c0.1,0,0.1-0.1,0.2-0.1
			c0.1,0,0.2,0,0.2,0c0.3,0,0.5,0.1,0.7,0.2c0.1,0.2,0.2,0.4,0.2,0.7v1.5H35V16c0-0.3,0-0.5-0.1-0.6s-0.3-0.2-0.5-0.2
			c0,0-0.1,0-0.1,0s-0.2,0.1-0.2,0.1c-0.1,0.1-0.2,0.2-0.2,0.3s-0.1,0.3-0.1,0.5v1.2h-0.3v-1.9c0-0.1,0-0.1,0-0.2c0-0.1,0-0.2,0-0.3
			H33.6z"/>
		<path d="M37.8,15.1L36.4,17h1.5v0.3h-2v-0.2l1.4-1.9h-1.3v-0.3h1.8V15.1z"/>
		<path d="M38.6,16.2c0,0.1,0,0.2,0.1,0.3s0.1,0.2,0.2,0.3c0.1,0.1,0.2,0.1,0.3,0.2s0.2,0.1,0.3,0.1c0.2,0,0.3,0,0.5-0.1
			s0.2-0.2,0.3-0.3l0.3,0.2c-0.1,0.2-0.3,0.3-0.5,0.4c-0.2,0.1-0.4,0.1-0.6,0.1c-0.2,0-0.3,0-0.5-0.1s-0.3-0.2-0.4-0.3
			c-0.1-0.1-0.2-0.2-0.3-0.4c-0.1-0.2-0.1-0.3-0.1-0.5c0-0.2,0-0.4,0.1-0.5c0.1-0.2,0.1-0.3,0.3-0.4c0.1-0.1,0.2-0.2,0.4-0.3
			c0.1-0.1,0.3-0.1,0.5-0.1c0.2,0,0.3,0,0.5,0.1c0.1,0.1,0.3,0.2,0.4,0.3c0.1,0.1,0.2,0.2,0.2,0.4c0.1,0.1,0.1,0.3,0.1,0.5v0.2H38.6
			z M40.2,15.9c0-0.2-0.1-0.4-0.2-0.6s-0.3-0.2-0.6-0.2c-0.1,0-0.2,0-0.3,0.1s-0.2,0.1-0.3,0.2c-0.1,0.1-0.1,0.2-0.2,0.2
			s-0.1,0.2-0.1,0.3H40.2z"/>
		<path d="M42.7,15.8L42.7,15.8c0-0.5-0.2-0.7-0.6-0.7c-0.3,0-0.5,0.1-0.7,0.3l-0.2-0.2c0.2-0.2,0.6-0.4,1-0.4c0.1,0,0.2,0,0.3,0.1
			c0.1,0,0.2,0.1,0.3,0.2s0.1,0.2,0.2,0.3s0.1,0.2,0.1,0.4v1.1c0,0.1,0,0.2,0,0.3c0,0.1,0,0.2,0,0.2h-0.3c0-0.1,0-0.1,0-0.2
			c0-0.1,0-0.1,0-0.2h0c-0.1,0.2-0.2,0.3-0.4,0.3s-0.3,0.1-0.5,0.1c-0.1,0-0.2,0-0.3,0c-0.1,0-0.2-0.1-0.3-0.1
			c-0.1-0.1-0.1-0.1-0.2-0.2s-0.1-0.2-0.1-0.3c0-0.2,0.1-0.3,0.2-0.5c0.1-0.1,0.2-0.2,0.4-0.3c0.2-0.1,0.3-0.1,0.5-0.1
			c0.2,0,0.3,0,0.5,0H42.7z M42.6,16.1c-0.1,0-0.2,0-0.3,0c-0.1,0-0.3,0-0.4,0.1c-0.1,0-0.2,0.1-0.3,0.2c-0.1,0.1-0.1,0.2-0.1,0.3
			c0,0.1,0,0.1,0,0.2s0.1,0.1,0.1,0.1c0.1,0,0.1,0.1,0.2,0.1c0.1,0,0.1,0,0.2,0c0.1,0,0.2,0,0.3-0.1c0.1,0,0.2-0.1,0.2-0.2
			c0.1-0.1,0.1-0.2,0.1-0.2s0-0.2,0-0.3v-0.2H42.6z"/>
		<path d="M43.9,15.4c0-0.1,0-0.2,0-0.3c0-0.1,0-0.2,0-0.3h0.4v0.4h0c0.1-0.1,0.2-0.2,0.3-0.3c0.1-0.1,0.3-0.1,0.4-0.1
			c0.1,0,0.1,0,0.2,0c0.1,0,0.1,0,0.2,0.1s0.1,0.1,0.2,0.2c0.1,0.1,0.1,0.1,0.2,0.3c0.1-0.2,0.2-0.3,0.3-0.4
			c0.1-0.1,0.3-0.1,0.5-0.1c0.3,0,0.5,0.1,0.7,0.2c0.1,0.2,0.2,0.4,0.2,0.7v1.5h-0.3v-1.4c0-0.2,0-0.4-0.1-0.6
			c-0.1-0.1-0.2-0.2-0.5-0.2c-0.1,0-0.2,0-0.3,0.1S46,15.3,46,15.4c-0.1,0.1-0.1,0.2-0.1,0.3c0,0.1,0,0.2,0,0.3v1.3h-0.3v-1.4
			c0-0.2,0-0.4-0.1-0.6c-0.1-0.1-0.2-0.2-0.5-0.2c0,0-0.1,0-0.1,0c-0.1,0-0.2,0.1-0.2,0.1s-0.2,0.2-0.2,0.3s-0.1,0.3-0.1,0.5v1.2
			h-0.3V15.4z"/>
		<path d="M48.5,16.2c0,0.1,0,0.2,0.1,0.3s0.1,0.2,0.2,0.3c0.1,0.1,0.2,0.1,0.3,0.2c0.1,0,0.2,0.1,0.3,0.1c0.2,0,0.3,0,0.5-0.1
			s0.2-0.2,0.3-0.3l0.3,0.2c-0.1,0.2-0.3,0.3-0.5,0.4s-0.4,0.1-0.6,0.1c-0.2,0-0.3,0-0.5-0.1c-0.2-0.1-0.3-0.2-0.4-0.3
			c-0.1-0.1-0.2-0.2-0.3-0.4c-0.1-0.2-0.1-0.3-0.1-0.5c0-0.2,0-0.4,0.1-0.5c0.1-0.2,0.1-0.3,0.3-0.4c0.1-0.1,0.2-0.2,0.4-0.3
			c0.1-0.1,0.3-0.1,0.5-0.1c0.2,0,0.3,0,0.5,0.1s0.3,0.2,0.4,0.3c0.1,0.1,0.2,0.2,0.2,0.4c0.1,0.1,0.1,0.3,0.1,0.5v0.2H48.5z
			 M50.1,15.9c0-0.2-0.1-0.4-0.2-0.6c-0.1-0.1-0.3-0.2-0.6-0.2c-0.1,0-0.2,0-0.3,0.1c-0.1,0-0.2,0.1-0.3,0.2
			c-0.1,0.1-0.1,0.2-0.2,0.2s-0.1,0.2-0.1,0.3H50.1z"/>
		<path d="M51.4,14.9c0,0.1,0,0.1,0,0.2s0,0.1,0,0.2h0c0-0.1,0.1-0.1,0.1-0.2c0.1-0.1,0.1-0.1,0.2-0.1c0.1,0,0.1-0.1,0.2-0.1
			s0.2,0,0.2,0c0.3,0,0.5,0.1,0.7,0.2c0.1,0.2,0.2,0.4,0.2,0.7v1.5h-0.3V16c0-0.3,0-0.5-0.1-0.6s-0.3-0.2-0.5-0.2c0,0-0.1,0-0.1,0
			s-0.2,0.1-0.2,0.1s-0.2,0.2-0.2,0.3c-0.1,0.1-0.1,0.3-0.1,0.5v1.2h-0.3v-1.9c0-0.1,0-0.1,0-0.2c0-0.1,0-0.2,0-0.3H51.4z"/>
		<path d="M55.2,15.2h-0.7v1.4c0,0.1,0,0.2,0,0.2c0,0.1,0,0.1,0.1,0.1c0,0,0.1,0.1,0.1,0.1s0.1,0,0.1,0c0.1,0,0.1,0,0.2,0
			c0.1,0,0.1,0,0.2-0.1l0,0.3c-0.1,0.1-0.3,0.1-0.5,0.1c-0.1,0-0.1,0-0.2,0s-0.1,0-0.2-0.1c-0.1,0-0.1-0.1-0.1-0.2
			c0-0.1-0.1-0.2-0.1-0.3v-1.5h-0.5v-0.3h0.5v-0.7h0.3v0.7h0.7V15.2z"/>
		<path d="M58.1,16.1c0,0.2,0,0.4-0.1,0.5c-0.1,0.2-0.2,0.3-0.3,0.4c-0.1,0.1-0.2,0.2-0.4,0.3s-0.3,0.1-0.5,0.1
			c-0.2,0-0.4,0-0.5-0.1s-0.3-0.2-0.4-0.3c-0.1-0.1-0.2-0.2-0.3-0.4c-0.1-0.2-0.1-0.3-0.1-0.5c0-0.2,0-0.4,0.1-0.5
			c0.1-0.2,0.2-0.3,0.3-0.4c0.1-0.1,0.2-0.2,0.4-0.3c0.2-0.1,0.3-0.1,0.5-0.1c0.2,0,0.4,0,0.5,0.1c0.2,0.1,0.3,0.2,0.4,0.3
			c0.1,0.1,0.2,0.2,0.3,0.4C58.1,15.7,58.1,15.9,58.1,16.1z M57.8,16.1c0-0.1,0-0.3-0.1-0.4c0-0.1-0.1-0.2-0.2-0.3s-0.2-0.2-0.3-0.2
			c-0.1,0-0.2-0.1-0.4-0.1c-0.1,0-0.3,0-0.4,0.1c-0.1,0-0.2,0.1-0.3,0.2c-0.1,0.1-0.1,0.2-0.2,0.3c0,0.1-0.1,0.2-0.1,0.4
			c0,0.1,0,0.3,0.1,0.4c0,0.1,0.1,0.2,0.2,0.3c0.1,0.1,0.2,0.2,0.3,0.2c0.1,0,0.2,0.1,0.4,0.1c0.1,0,0.3,0,0.4-0.1
			c0.1,0,0.2-0.1,0.3-0.2s0.1-0.2,0.2-0.3C57.7,16.4,57.8,16.2,57.8,16.1z"/>
		<path d="M60.7,14c0,0.1,0,0.1-0.1,0.2c-0.1,0-0.1,0.1-0.2,0.1c-0.1,0-0.1,0-0.2-0.1c-0.1,0-0.1-0.1-0.1-0.2s0-0.1,0.1-0.2
			c0.1,0,0.1-0.1,0.2-0.1c0.1,0,0.1,0,0.2,0.1C60.7,13.8,60.7,13.9,60.7,14z M60.6,17.3h-0.3v-2.4h0.3V17.3z"/>
		<path d="M61.8,14.9c0,0.1,0,0.1,0,0.2s0,0.1,0,0.2h0c0-0.1,0.1-0.1,0.1-0.2C62,15,62.1,15,62.1,15c0.1,0,0.1-0.1,0.2-0.1
			s0.2,0,0.2,0c0.3,0,0.5,0.1,0.7,0.2c0.1,0.2,0.2,0.4,0.2,0.7v1.5h-0.3V16c0-0.3,0-0.5-0.1-0.6s-0.3-0.2-0.5-0.2c0,0-0.1,0-0.1,0
			s-0.2,0.1-0.2,0.1s-0.2,0.2-0.2,0.3c-0.1,0.1-0.1,0.3-0.1,0.5v1.2h-0.3v-1.9c0-0.1,0-0.1,0-0.2c0-0.1,0-0.2,0-0.3H61.8z"/>
		<path d="M65.5,15.2h-0.7v1.4c0,0.1,0,0.2,0,0.2c0,0.1,0,0.1,0.1,0.1c0,0,0.1,0.1,0.1,0.1s0.1,0,0.1,0c0.1,0,0.1,0,0.2,0
			c0.1,0,0.1,0,0.2-0.1l0,0.3c-0.1,0.1-0.3,0.1-0.5,0.1c-0.1,0-0.1,0-0.2,0s-0.1,0-0.2-0.1c-0.1,0-0.1-0.1-0.1-0.2
			c0-0.1-0.1-0.2-0.1-0.3v-1.5H64v-0.3h0.5v-0.7h0.3v0.7h0.7V15.2z"/>
		<path d="M66.2,16.2c0,0.1,0,0.2,0.1,0.3s0.1,0.2,0.2,0.3c0.1,0.1,0.2,0.1,0.3,0.2c0.1,0,0.2,0.1,0.3,0.1c0.2,0,0.3,0,0.5-0.1
			s0.2-0.2,0.3-0.3l0.3,0.2c-0.1,0.2-0.3,0.3-0.5,0.4s-0.4,0.1-0.6,0.1c-0.2,0-0.3,0-0.5-0.1s-0.3-0.2-0.4-0.3
			c-0.1-0.1-0.2-0.2-0.3-0.4c-0.1-0.2-0.1-0.3-0.1-0.5c0-0.2,0-0.4,0.1-0.5c0.1-0.2,0.1-0.3,0.3-0.4c0.1-0.1,0.2-0.2,0.4-0.3
			c0.1-0.1,0.3-0.1,0.5-0.1c0.2,0,0.3,0,0.5,0.1s0.3,0.2,0.4,0.3c0.1,0.1,0.2,0.2,0.2,0.4c0.1,0.1,0.1,0.3,0.1,0.5v0.2H66.2z
			 M67.9,15.9c0-0.2-0.1-0.4-0.2-0.6c-0.1-0.1-0.3-0.2-0.6-0.2c-0.1,0-0.2,0-0.3,0.1c-0.1,0-0.2,0.1-0.3,0.2s-0.1,0.2-0.2,0.2
			c0,0.1-0.1,0.2-0.1,0.3H67.9z"/>
		<path d="M69.3,17.3H69v-3.9h0.3V17.3z"/>
		<path d="M70.6,14c0,0.1,0,0.1-0.1,0.2c-0.1,0-0.1,0.1-0.2,0.1c-0.1,0-0.1,0-0.2-0.1c-0.1,0-0.1-0.1-0.1-0.2s0-0.1,0.1-0.2
			c0.1,0,0.1-0.1,0.2-0.1c0.1,0,0.1,0,0.2,0.1C70.6,13.8,70.6,13.9,70.6,14z M70.5,17.3h-0.3v-2.4h0.3V17.3z"/>
		<path d="M71.5,17.8c0.1,0.1,0.2,0.2,0.4,0.3c0.2,0.1,0.3,0.1,0.5,0.1c0.2,0,0.3,0,0.4-0.1s0.2-0.1,0.3-0.2
			c0.1-0.1,0.1-0.2,0.2-0.3c0-0.1,0-0.2,0-0.4v-0.4h0c-0.1,0.2-0.2,0.3-0.4,0.4c-0.2,0.1-0.3,0.1-0.5,0.1c-0.2,0-0.3,0-0.5-0.1
			s-0.3-0.1-0.4-0.3c-0.1-0.1-0.2-0.2-0.3-0.4s-0.1-0.3-0.1-0.5c0-0.2,0-0.3,0.1-0.5c0.1-0.2,0.1-0.3,0.3-0.4
			c0.1-0.1,0.2-0.2,0.4-0.3c0.1-0.1,0.3-0.1,0.5-0.1c0.1,0,0.1,0,0.2,0c0.1,0,0.2,0,0.2,0.1s0.2,0.1,0.2,0.1s0.2,0.1,0.2,0.2h0v-0.4
			h0.3v2.4c0,0.1,0,0.3,0,0.4c0,0.1-0.1,0.3-0.2,0.4s-0.2,0.2-0.4,0.3c-0.2,0.1-0.4,0.1-0.7,0.1c-0.2,0-0.5,0-0.6-0.1
			c-0.2-0.1-0.4-0.2-0.5-0.4L71.5,17.8z M71.6,16.1c0,0.1,0,0.2,0.1,0.4c0,0.1,0.1,0.2,0.2,0.3c0.1,0.1,0.2,0.2,0.3,0.2
			s0.2,0.1,0.4,0.1c0.1,0,0.2,0,0.4-0.1c0.1,0,0.2-0.1,0.3-0.2c0.1-0.1,0.2-0.2,0.2-0.3c0-0.1,0.1-0.2,0.1-0.4c0-0.1,0-0.2-0.1-0.4
			c0-0.1-0.1-0.2-0.2-0.3c-0.1-0.1-0.2-0.2-0.3-0.2s-0.2-0.1-0.4-0.1c-0.1,0-0.2,0-0.4,0.1s-0.2,0.1-0.3,0.2
			c-0.1,0.1-0.1,0.2-0.2,0.3C71.6,15.8,71.6,15.9,71.6,16.1z"/>
		<path d="M74.7,16.2c0,0.1,0,0.2,0.1,0.3s0.1,0.2,0.2,0.3c0.1,0.1,0.2,0.1,0.3,0.2c0.1,0,0.2,0.1,0.3,0.1c0.2,0,0.3,0,0.5-0.1
			s0.2-0.2,0.3-0.3l0.3,0.2c-0.1,0.2-0.3,0.3-0.5,0.4s-0.4,0.1-0.6,0.1c-0.2,0-0.3,0-0.5-0.1s-0.3-0.2-0.4-0.3
			c-0.1-0.1-0.2-0.2-0.3-0.4c-0.1-0.2-0.1-0.3-0.1-0.5c0-0.2,0-0.4,0.1-0.5c0.1-0.2,0.1-0.3,0.3-0.4c0.1-0.1,0.2-0.2,0.4-0.3
			c0.1-0.1,0.3-0.1,0.5-0.1c0.2,0,0.3,0,0.5,0.1s0.3,0.2,0.4,0.3c0.1,0.1,0.2,0.2,0.2,0.4c0.1,0.1,0.1,0.3,0.1,0.5v0.2H74.7z
			 M76.4,15.9c0-0.2-0.1-0.4-0.2-0.6c-0.1-0.1-0.3-0.2-0.6-0.2c-0.1,0-0.2,0-0.3,0.1c-0.1,0-0.2,0.1-0.3,0.2s-0.1,0.2-0.2,0.2
			c0,0.1-0.1,0.2-0.1,0.3H76.4z"/>
		<path d="M77.7,14.9c0,0.1,0,0.1,0,0.2s0,0.1,0,0.2h0c0-0.1,0.1-0.1,0.1-0.2C77.9,15,78,15,78.1,15c0.1,0,0.1-0.1,0.2-0.1
			s0.2,0,0.2,0c0.3,0,0.5,0.1,0.7,0.2c0.1,0.2,0.2,0.4,0.2,0.7v1.5h-0.3V16c0-0.3,0-0.5-0.1-0.6s-0.3-0.2-0.5-0.2c0,0-0.1,0-0.1,0
			s-0.2,0.1-0.2,0.1s-0.2,0.2-0.2,0.3c-0.1,0.1-0.1,0.3-0.1,0.5v1.2h-0.3v-1.9c0-0.1,0-0.1,0-0.2c0-0.1,0-0.2,0-0.3H77.7z"/>
		<path d="M81.5,15.2h-0.7v1.4c0,0.1,0,0.2,0,0.2c0,0.1,0,0.1,0.1,0.1c0,0,0.1,0.1,0.1,0.1s0.1,0,0.1,0c0.1,0,0.1,0,0.2,0
			c0.1,0,0.1,0,0.2-0.1l0,0.3c-0.1,0.1-0.3,0.1-0.5,0.1c-0.1,0-0.1,0-0.2,0s-0.1,0-0.2-0.1c-0.1,0-0.1-0.1-0.1-0.2
			c0-0.1-0.1-0.2-0.1-0.3v-1.5h-0.5v-0.3h0.5v-0.7h0.3v0.7h0.7V15.2z"/>
		<path d="M82.2,16.2c0,0.1,0,0.2,0.1,0.3s0.1,0.2,0.2,0.3c0.1,0.1,0.2,0.1,0.3,0.2c0.1,0,0.2,0.1,0.3,0.1c0.2,0,0.3,0,0.5-0.1
			s0.2-0.2,0.3-0.3l0.3,0.2c-0.1,0.2-0.3,0.3-0.5,0.4s-0.4,0.1-0.6,0.1c-0.2,0-0.3,0-0.5-0.1s-0.3-0.2-0.4-0.3
			c-0.1-0.1-0.2-0.2-0.3-0.4c-0.1-0.2-0.1-0.3-0.1-0.5c0-0.2,0-0.4,0.1-0.5c0.1-0.2,0.1-0.3,0.3-0.4c0.1-0.1,0.2-0.2,0.4-0.3
			c0.1-0.1,0.3-0.1,0.5-0.1c0.2,0,0.3,0,0.5,0.1s0.3,0.2,0.4,0.3c0.1,0.1,0.2,0.2,0.2,0.4c0.1,0.1,0.1,0.3,0.1,0.5v0.2H82.2z
			 M83.8,15.9c0-0.2-0.1-0.4-0.2-0.6c-0.1-0.1-0.3-0.2-0.6-0.2c-0.1,0-0.2,0-0.3,0.1c-0.1,0-0.2,0.1-0.3,0.2s-0.1,0.2-0.2,0.2
			c0,0.1-0.1,0.2-0.1,0.3H83.8z"/>
	</g>
</g>
<g>
	<defs>
		<path id="SVGID_1_" d="M8,7.5c0.1-0.1,0.2-0.3,0.2-0.4c0.3-0.5,0.6-0.9,0.9-1.4C9.2,5.4,9.3,5.2,9.4,5c0-0.1,0.1-0.2,0.1-0.2
			c0,0.1,0.1,0.2,0.1,0.3c0.1,0.2,0.2,0.4,0.3,0.6C10,6,10.3,6.4,10.5,6.7c0.1,0.1,0.1,0.2,0,0.4v0c0,0.1-0.1,0.2-0.1,0.3
			c-0.1,0.2-0.3,0.3-0.5,0.4c-0.1,0-0.2,0.1-0.4,0.1c-0.1,0-0.2,0-0.3,0c-0.2,0-0.4,0-0.6-0.1v0C8.3,7.7,8.1,7.6,8,7.5 M9.5,1.4
			C9.5,1.6,9.4,1.8,9.3,2C9.1,2.6,8.9,3.2,8.6,3.8h0C7.9,5,7.1,6.2,6.4,7.4C6,7.9,5.7,8.4,5.4,9c0,0.2,0.1,0.4,0.2,0.5
			c0.5,1.3,1.7,2.2,3,2.5c0.3,0.1,0.6,0.1,0.9,0.1c0.9,0,1.6,0.7,1.6,1.6c0,0.7-0.5,1.4-1.2,1.5h0c-0.1,0-0.2,0-0.4,0
			c0,0-0.1,0-0.1,0h0c0,0-0.1,0-0.1,0c0,0,0,0,0,0c-2.5,0-4.5-2-4.5-4.5c0-0.2,0-0.4,0-0.5c-0.2,0.6-0.4,1.1-0.5,1.7
			c-0.4,2.4,1.1,4.8,3.3,5.6c0.6,0.2,1.3,0.3,1.9,0.3c0.6,0,1.2-0.1,1.9-0.3c0.3-0.1,0.6-0.2,0.9-0.4c1.7-1,2.7-3.1,2.4-5.1
			c-0.2-0.9-0.5-1.9-0.9-2.8c0-0.1-0.1-0.1-0.1-0.2c0,0,0-0.1-0.1-0.1c-0.1-0.1-0.2-0.2-0.3-0.2h0c-0.1,0-0.3,0-0.4,0
			c-0.5,0-1,0.1-1.5,0.3c0.4-0.4,0.7-1,0.9-1.5v0c0.1-0.3,0.1-0.7-0.1-0.9c-0.6-0.9-1.1-1.7-1.6-2.7c-0.3-0.5-0.5-1-0.7-1.6
			C9.7,1.9,9.6,1.7,9.5,1.4z"/>
	</defs>
	<use xlink:href="#SVGID_1_"  style="overflow:visible;fill:#B76B77;"/>
	<clipPath id="SVGID_2_">
		<use xlink:href="#SVGID_1_"  style="overflow:visible;"/>
	</clipPath>
</g>
</svg>
