<?xml version="1.0" encoding="utf-8"?>
<!-- Generator: Adobe Illustrator 24.3.0, SVG Export Plug-In . SVG Version: 6.00 Build 0)  -->
<svg version="1.1" id="Layer_1" xmlns="http://www.w3.org/2000/svg" xmlns:xlink="http://www.w3.org/1999/xlink" x="0px" y="0px"
	 viewBox="0 0 32 32" style="enable-background:new 0 0 32 32;" xml:space="preserve">
<g>
	<defs>
		<path id="SVGID_1_" d="M13.3,12.2c0.1-0.2,0.3-0.5,0.4-0.7c0.5-0.8,1.1-1.6,1.5-2.5c0.2-0.4,0.4-0.8,0.5-1.2
			c0.1-0.1,0.1-0.3,0.1-0.4C16,7.6,16,7.7,16.1,7.9c0.1,0.4,0.3,0.7,0.5,1.1c0.3,0.6,0.7,1.3,1.1,1.9c0.1,0.2,0.1,0.4,0.1,0.6v0
			c-0.1,0.2-0.2,0.4-0.3,0.6c-0.2,0.3-0.5,0.6-0.9,0.7c-0.2,0.1-0.4,0.1-0.7,0.2c-0.2,0-0.4,0-0.5,0c-0.4,0-0.7-0.1-1.1-0.2v0
			C13.8,12.6,13.5,12.4,13.3,12.2 M16,1.5c-0.1,0.4-0.2,0.7-0.3,1.1c-0.4,1.1-0.8,2.1-1.3,3h0c-1.1,2.2-2.6,4.3-3.9,6.4
			c-0.6,0.9-1.2,1.9-1.7,2.8c0.1,0.3,0.2,0.6,0.3,0.9c0.9,2.2,2.9,3.9,5.3,4.5c0.5,0.1,1,0.2,1.6,0.2c1.5,0,2.8,1.2,2.8,2.8
			c0,1.3-0.9,2.4-2.1,2.7h0c-0.2,0-0.4,0.1-0.6,0.1c-0.1,0-0.1,0-0.2,0h0c-0.1,0-0.2,0-0.3,0c0,0,0,0,0,0c-4.4,0-7.9-3.5-7.9-7.9
			c0-0.3,0-0.6,0.1-0.9c-0.4,1-0.6,2-0.8,3c-0.7,4.2,1.9,8.4,5.8,9.8c1.1,0.4,2.2,0.6,3.3,0.6c1.1,0,2.2-0.2,3.3-0.6
			c0.5-0.2,1-0.4,1.5-0.7c3-1.8,4.8-5.4,4.2-9.1c-0.3-1.7-0.8-3.4-1.6-4.9c-0.1-0.1-0.1-0.2-0.2-0.4c0-0.1-0.1-0.1-0.1-0.2
			c-0.1-0.2-0.3-0.4-0.6-0.4h0c-0.3,0-0.5,0-0.8,0c-0.9,0-1.8,0.2-2.6,0.5c0.7-0.8,1.2-1.7,1.5-2.7v0c0.2-0.6,0.1-1.2-0.2-1.7
			c-1-1.5-2-3.1-2.8-4.7c-0.5-0.9-0.9-1.8-1.2-2.8C16.3,2.5,16.1,2,16,1.5z"/>
	</defs>
	<use xlink:href="#SVGID_1_"  style="overflow:visible;fill:#B76B77;"/>
	<clipPath id="SVGID_2_">
		<use xlink:href="#SVGID_1_"  style="overflow:visible;"/>
	</clipPath>
</g>
</svg>
